<svg xmlns="http://www.w3.org/2000/svg" viewBox="0 0 872 1066.3">
  <defs>
    <linearGradient id="a" x1="-29.9" y1="104" x2="-120.3" y2="316.2" gradientUnits="userSpaceOnUse" gradientTransform="translate(274.3 163.8)">
      <stop offset="0" stop-color="#29F2E4"/>
      <stop offset=".3" stop-color="#23CFD8"/>
      <stop offset="1" stop-color="#1CABCC"/>
    </linearGradient>
    <linearGradient id="b" x1="-115.5" y1="702.6" x2="-115.5" y2="263.8" gradientUnits="userSpaceOnUse" gradientTransform="translate(274.3 163.8)">
      <stop offset="0" stop-color="#00C7B8"/>
      <stop offset=".67" stop-color="#1CABCC"/>
    </linearGradient>
    <linearGradient id="c" x1="-243.3" y1="654.5" x2="439.6" y2="-28.4" gradientUnits="userSpaceOnUse" gradientTransform="translate(274.3 163.8)">
      <stop offset="0" stop-color="#00FFEC"/>
      <stop offset=".4" stop-color="#1CABCC"/>
      <stop offset=".65" stop-color="#1CABCC"/>
      <stop offset="1" stop-color="#00C7B8"/>
    </linearGradient>
    <linearGradient id="d" x1="-2304.7" y1="-8867.1" x2="-2245.2" y2="-9012.9" gradientUnits="userSpaceOnUse" gradientTransform="matrix(-1,0,0,-1,-2084.1,-8549.9)">
      <stop offset=".5" stop-color="#383838" stop-opacity="0"/>
      <stop offset=".93" stop-color="#383838" stop-opacity=".86"/>
      <stop offset="1" stop-color="#383838"/>
    </linearGradient>
    <linearGradient id="e" x1="1372.2" y1="-5228.9" x2="1281.8" y2="-5016.7" gradientUnits="userSpaceOnUse" gradientTransform="matrix(-1,0,0,-1,2000,-4428.4)">
      <stop offset="0" stop-color="#29F2E4"/>
      <stop offset=".3" stop-color="#23CFD8"/>
      <stop offset="1" stop-color="#1CABCC"/>
    </linearGradient>
    <linearGradient id="f" x1="1286.6" y1="-4630.3" x2="1286.6" y2="-5069.1" gradientUnits="userSpaceOnUse" gradientTransform="matrix(-1,0,0,-1,2000,-4428.4)">
      <stop offset="0" stop-color="#00C7B8"/>
      <stop offset=".67" stop-color="#1CABCC"/>
    </linearGradient>
    <linearGradient id="g" x1="1158.8" y1="-4678.4" x2="1841.8" y2="-5361.3" gradientUnits="userSpaceOnUse" gradientTransform="matrix(-1,0,0,-1,2000,-4428.4)">
      <stop offset="0" stop-color="#00FFEC"/>
      <stop offset=".4" stop-color="#1CABCC"/>
      <stop offset=".65" stop-color="#1CABCC"/>
      <stop offset="1" stop-color="#00C7B8"/>
    </linearGradient>
    <linearGradient id="h" x1="-3706.9" y1="-3534.3" x2="-3647.3" y2="-3680" gradientUnits="userSpaceOnUse" gradientTransform="matrix(1,0,0,1,4358,4285.4)">
      <stop offset=".5" stop-color="#383838" stop-opacity="0"/>
      <stop offset=".93" stop-color="#383838" stop-opacity=".86"/>
      <stop offset="1" stop-color="#383838"/>
    </linearGradient>
  </defs>
  <polygon fill="url(#a)" points="230.9,516.4 86.6,421.1 230.8,276.8"/>
  <polygon fill="url(#b)" points="86.6,864 86.6,421.1 230.9,516.4"/>
  <polygon fill="url(#c)" points="562,185.2 230.9,516.4 86.6,864 766.1,185.2"/>
  <polygon opacity=".3" fill="url(#d)" points="230.9,516.4 86.6,421.1 230.8,276.8"/>
  <polygon fill="url(#e)" points="640.8,551.9 785.1,647.2 640.9,791.5"/>
  <polygon fill="url(#f)" points="785.1,204.2 785.1,647.2 640.8,551.9"/>
  <polygon fill="url(#g)" points="309.7,883.1 640.8,551.9 785.1,204.2 105.6,883.1"/>
  <polygon opacity=".3" fill="url(#h)" points="640.8,551.9 785.1,647.2 640.9,791.5"/>
</svg>
