<?xml version="1.0" encoding="utf-8"?>
<!-- Generator: Adobe Illustrator 22.1.0, SVG Export Plug-In . SVG Version: 6.00 Build 0)  -->
<svg version="1.1" id="Layer_1" xmlns="http://www.w3.org/2000/svg" xmlns:xlink="http://www.w3.org/1999/xlink" x="0px" y="0px"
	 viewBox="0 0 3348.1 1066.3" style="enable-background:new 0 0 3348.1 1066.3;" xml:space="preserve">
<style type="text/css">
	.st0{fill:url(#SVGID_1_);}
	.st1{fill:url(#SVGID_2_);}
	.st2{fill:url(#SVGID_3_);}
	.st3{opacity:0.3;fill:url(#SVGID_4_);}
	.st4{fill:url(#SVGID_5_);}
	.st5{fill:url(#SVGID_6_);}
	.st6{fill:url(#SVGID_7_);}
	.st7{opacity:0.3;fill:url(#SVGID_8_);}
	.st8{fill:url(#SVGID_9_);}
	.st9{fill:url(#SVGID_10_);}
	.st10{fill:url(#SVGID_11_);}
	.st11{fill:url(#SVGID_12_);}
	.st12{fill:url(#SVGID_13_);}
</style>
<g>
	<g>
		<g>
			<g>
				<g>
					<g>
						
							<linearGradient id="SVGID_1_" gradientUnits="userSpaceOnUse" x1="-29.9453" y1="104.0089" x2="-120.3147" y2="316.1807" gradientTransform="matrix(1 0 0 1 274.259 163.7677)">
							<stop  offset="0" style="stop-color:#29F2E4"/>
							<stop  offset="0.3" style="stop-color:#23CFD8"/>
							<stop  offset="1" style="stop-color:#1CABCC"/>
						</linearGradient>
						<polygon class="st0" points="230.9,516.4 86.6,421.1 230.8,276.8 						"/>
					</g>
					<g>
						
							<linearGradient id="SVGID_2_" gradientUnits="userSpaceOnUse" x1="-115.5315" y1="702.5827" x2="-115.5315" y2="263.7704" gradientTransform="matrix(1 0 0 1 274.259 163.7677)">
							<stop  offset="0" style="stop-color:#00C7B8"/>
							<stop  offset="0.6749" style="stop-color:#1CABCC"/>
						</linearGradient>
						<polygon class="st1" points="86.6,864 86.6,421.1 230.9,516.4 						"/>
					</g>
					
						<linearGradient id="SVGID_3_" gradientUnits="userSpaceOnUse" x1="-243.3176" y1="654.5341" x2="439.6359" y2="-28.4194" gradientTransform="matrix(1 0 0 1 274.259 163.7677)">
						<stop  offset="0" style="stop-color:#00FFEC"/>
						<stop  offset="0.4" style="stop-color:#1CABCC"/>
						<stop  offset="0.65" style="stop-color:#1CABCC"/>
						<stop  offset="1" style="stop-color:#00C7B8"/>
					</linearGradient>
					<polygon class="st2" points="562,185.2 230.9,516.4 86.6,864 766.1,185.2 					"/>
				</g>
				
					<linearGradient id="SVGID_4_" gradientUnits="userSpaceOnUse" x1="-2304.7444" y1="-8867.1494" x2="-2245.2014" y2="-9012.9463" gradientTransform="matrix(-1 0 0 -1 -2084.1184 -8549.9951)">
					<stop  offset="0.5021" style="stop-color:#383838;stop-opacity:0"/>
					<stop  offset="0.9296" style="stop-color:#383838;stop-opacity:0.8587"/>
					<stop  offset="1" style="stop-color:#383838"/>
				</linearGradient>
				<polygon class="st3" points="230.9,516.4 86.6,421.1 230.8,276.8 				"/>
			</g>
		</g>
	</g>
	<g>
		<g>
			<g>
				<g>
					<g>
						
							<linearGradient id="SVGID_5_" gradientUnits="userSpaceOnUse" x1="1372.196" y1="-5228.8882" x2="1281.8267" y2="-5016.7163" gradientTransform="matrix(-1 0 0 -1 1999.5824 -4428.4019)">
							<stop  offset="0" style="stop-color:#29F2E4"/>
							<stop  offset="0.3" style="stop-color:#23CFD8"/>
							<stop  offset="1" style="stop-color:#1CABCC"/>
						</linearGradient>
						<polygon class="st4" points="640.8,551.9 785.1,647.2 640.9,791.5 						"/>
					</g>
					<g>
						
							<linearGradient id="SVGID_6_" gradientUnits="userSpaceOnUse" x1="1286.6099" y1="-4630.3145" x2="1286.6099" y2="-5069.1265" gradientTransform="matrix(-1 0 0 -1 1999.5824 -4428.4019)">
							<stop  offset="0" style="stop-color:#00C7B8"/>
							<stop  offset="0.6749" style="stop-color:#1CABCC"/>
						</linearGradient>
						<polygon class="st5" points="785.1,204.2 785.1,647.2 640.8,551.9 						"/>
					</g>
					
						<linearGradient id="SVGID_7_" gradientUnits="userSpaceOnUse" x1="1158.8237" y1="-4678.3628" x2="1841.7772" y2="-5361.3164" gradientTransform="matrix(-1 0 0 -1 1999.5824 -4428.4019)">
						<stop  offset="0" style="stop-color:#00FFEC"/>
						<stop  offset="0.4" style="stop-color:#1CABCC"/>
						<stop  offset="0.65" style="stop-color:#1CABCC"/>
						<stop  offset="1" style="stop-color:#00C7B8"/>
					</linearGradient>
					<polygon class="st6" points="309.7,883.1 640.8,551.9 785.1,204.2 105.6,883.1 					"/>
				</g>
				
					<linearGradient id="SVGID_8_" gradientUnits="userSpaceOnUse" x1="-3706.8857" y1="-3534.2522" x2="-3647.3428" y2="-3680.0488" gradientTransform="matrix(1 0 0 1 4357.96 4285.3613)">
					<stop  offset="0.5021" style="stop-color:#383838;stop-opacity:0"/>
					<stop  offset="0.9296" style="stop-color:#383838;stop-opacity:0.8587"/>
					<stop  offset="1" style="stop-color:#383838"/>
				</linearGradient>
				<polygon class="st7" points="640.8,551.9 785.1,647.2 640.9,791.5 				"/>
			</g>
		</g>
	</g>
</g>
<g>
	<linearGradient id="SVGID_9_" gradientUnits="userSpaceOnUse" x1="1151.521" y1="255.5469" x2="1151.521" y2="1064.7676">
		<stop  offset="0" style="stop-color:#1CABCC"/>
		<stop  offset="1" style="stop-color:#00C7B8"/>
	</linearGradient>
	<path class="st8" d="M1159.4,282c-83.6,0-125.4,29.3-125.4,87.9c0,30.3,9.9,51.8,29.6,64.7c19.7,12.8,63.3,28.6,130.8,47.4
		c67.5,18.8,115,41.1,142.7,67.1c27.6,26,41.5,67,41.5,122.9c0,71.1-20.2,124.3-60.7,159.5c-40.5,35.2-95.6,52.8-165.4,52.8
		c-56,0-117.8-6.6-185.6-19.7l-35.5-6.9l10.9-87.9c88.9,11.8,156.7,17.8,203.4,17.8c81.6,0,122.4-36.2,122.4-108.6
		c0-28.3-9.2-49.2-27.7-62.7c-18.4-13.5-59.9-28.3-124.4-44.4c-64.5-16.1-112.6-38.3-144.2-66.6c-31.6-28.3-47.4-73.1-47.4-134.3
		c0-61.2,19.9-107.5,59.7-138.7c39.8-31.3,94.9-46.9,165.4-46.9c50.7,0,110.6,5.9,179.7,17.8l34.6,5.9l-8.9,88.9
		C1262.8,287.2,1197.6,282,1159.4,282z"/>
	<linearGradient id="SVGID_10_" gradientUnits="userSpaceOnUse" x1="1695.5575" y1="260.2883" x2="1695.5575" y2="1035.6421">
		<stop  offset="0" style="stop-color:#1CABCC"/>
		<stop  offset="1" style="stop-color:#00C7B8"/>
	</linearGradient>
	<path class="st9" d="M1484.3,1055.7v-676h106.6v30.6c45.4-27.6,87.9-41.5,127.4-41.5c65.2,0,112.9,19.9,143.2,59.7
		c30.3,39.8,45.4,106.6,45.4,200.4c0,93.8-17.3,159.8-51.8,198c-34.6,38.2-91,57.3-169.3,57.3c-27,0-58.2-3-93.8-8.9v180.3H1484.3z
		 M1699.5,464.6c-30.9,0-61.9,6.9-92.8,20.7l-14.8,6.9v291.3c26.3,5.3,55.3,7.9,86.9,7.9c44.8,0,75.7-12.8,92.8-38.5
		c17.1-25.7,25.7-69.4,25.7-131.3C1797.3,516.9,1764.7,464.6,1699.5,464.6z"/>
	<linearGradient id="SVGID_11_" gradientUnits="userSpaceOnUse" x1="2203.0496" y1="255.5469" x2="2203.0496" y2="1064.7676">
		<stop  offset="0" style="stop-color:#1CABCC"/>
		<stop  offset="1" style="stop-color:#00C7B8"/>
	</linearGradient>
	<path class="st10" d="M2379.8,531.8v225.1c0.6,14.5,4.4,25.2,11.4,32.1c6.9,6.9,17.6,11.4,32.1,13.3l-3,81.9
		c-56.6,0-100.4-12.2-131.3-36.5c-52.7,24.4-105.6,36.5-159,36.5c-98.1,0-147.1-52.3-147.1-157c0-50,13.3-86.2,40-108.6
		c26.7-22.4,67.6-35.9,122.9-40.5l127.4-10.9v-35.5c0-26.3-5.8-44.8-17.3-55.3c-11.5-10.5-28.5-15.8-50.8-15.8
		c-42.1,0-94.8,2.6-158,7.9l-31.6,2l-3.9-76c71.7-17.1,137.7-25.7,198-25.7c60.2,0,103.7,13,130.3,39
		C2366.5,433.9,2379.8,475.2,2379.8,531.8z M2158.6,654.2c-45.4,4-68.1,28.6-68.1,74.1c0,45.4,20.1,68.1,60.2,68.1
		c32.9,0,67.8-5.3,104.7-15.8l17.8-5.9V643.3L2158.6,654.2z"/>
	<linearGradient id="SVGID_12_" gradientUnits="userSpaceOnUse" x1="2652.2854" y1="255.5469" x2="2652.2854" y2="1064.7676">
		<stop  offset="0" style="stop-color:#1CABCC"/>
		<stop  offset="1" style="stop-color:#00C7B8"/>
	</linearGradient>
	<path class="st11" d="M2515,873.4V379.7h106.6v59.2c55.9-36.2,111.9-59.6,167.9-70.1v107.6c-56.6,11.2-105,25.7-145.1,43.4
		l-21.7,8.9v344.6H2515z"/>
	<linearGradient id="SVGID_13_" gradientUnits="userSpaceOnUse" x1="3054.6321" y1="255.5469" x2="3054.6321" y2="1064.7676">
		<stop  offset="0" style="stop-color:#1CABCC"/>
		<stop  offset="1" style="stop-color:#00C7B8"/>
	</linearGradient>
	<path class="st12" d="M3219,784.5l27.7-3l2,80c-75,15.1-141.5,22.7-199.4,22.7c-73.1,0-125.6-20.1-157.5-60.2
		c-31.9-40.1-47.9-104.3-47.9-192.5c0-175.1,71.4-262.6,214.3-262.6c138.2,0,207.3,75.4,207.3,226.1l-6.9,77h-306.1
		c0.6,40.8,9.5,70.8,26.7,89.9c17.1,19.1,49,28.6,95.8,28.6C3121.6,790.4,3169.7,788.5,3219,784.5z M3159.8,589
		c0-48.7-7.7-82.8-23.2-102.2c-15.5-19.4-41.6-29.1-78.5-29.1c-36.9,0-63.7,10.2-80.5,30.6c-16.8,20.4-25.5,54-26.2,100.7H3159.8z"
		/>
</g>
</svg>
