<?xml version="1.0" encoding="UTF-8"?> <svg xmlns="http://www.w3.org/2000/svg" id="Layer_2" data-name="Layer 2" viewBox="0 0 850 109.16"><defs><style> .cls-1 { fill: #f89a1c; stroke-width: 0px; } </style></defs><g id="Layer_1-2" data-name="Layer 1"><g><rect class="cls-1" x="132.62" y="17.37" width="29.34" height="7.17"></rect><rect class="cls-1" x="132.62" y="3.03" width="29.34" height="7.17"></rect><rect class="cls-1" x="132.62" y="31.07" width="29.34" height="7.17"></rect><rect class="cls-1" x="132.62" y="44.77" width="29.34" height="7.17"></rect><rect class="cls-1" x="132.62" y="58.48" width="29.34" height="7.17"></rect><rect class="cls-1" x="132.62" y="72.18" width="29.34" height="7.17"></rect><rect class="cls-1" x="132.62" y="85.88" width="29.34" height="7.17"></rect><rect class="cls-1" x="132.62" y="99.58" width="29.34" height="7.17"></rect><polygon class="cls-1" points="262.89 13.66 251.21 1.98 239.53 13.66 227.85 1.98 216.17 13.66 204.49 1.98 189.6 16.88 196.03 23.31 204.49 14.85 216.17 26.53 227.85 14.85 239.53 26.53 251.21 14.85 262.89 26.53 274.57 14.85 283.02 23.31 289.46 16.88 274.57 1.98 262.89 13.66"></polygon><polygon class="cls-1" points="236.91 30.45 230.47 36.89 238.93 45.35 227.25 57.03 238.93 68.71 227.25 80.38 238.93 92.06 230.47 100.52 236.91 106.96 251.81 92.06 240.13 80.38 251.81 68.71 240.13 57.03 251.81 45.35 236.91 30.45"></polygon><rect class="cls-1" x="320.92" y="20.02" width="10.49" height="10.49" transform="translate(77.64 238) rotate(-44.99)"></rect><rect class="cls-1" x="335.75" y="19.96" width="10.49" height="10.49" transform="translate(82.05 248.5) rotate(-45)"></rect><rect class="cls-1" x="320.92" y="5.17" width="10.49" height="10.49" transform="translate(88.13 233.66) rotate(-44.99)"></rect><rect class="cls-1" x="335.75" y="5.13" width="10.49" height="10.49" transform="translate(92.54 244.16) rotate(-45)"></rect><rect class="cls-1" x="320.92" y="34.85" width="10.49" height="10.49" transform="translate(67.15 242.34) rotate(-44.99)"></rect><rect class="cls-1" x="335.75" y="34.8" width="10.49" height="10.49" transform="translate(71.56 252.85) rotate(-45)"></rect><rect class="cls-1" x="320.92" y="49.69" width="10.49" height="10.49" transform="translate(56.66 246.69) rotate(-44.99)"></rect><rect class="cls-1" x="335.75" y="49.64" width="10.49" height="10.49" transform="translate(61.06 257.19) rotate(-45)"></rect><rect class="cls-1" x="320.92" y="64.53" width="10.49" height="10.49" transform="translate(46.16 251.03) rotate(-44.99)"></rect><rect class="cls-1" x="335.75" y="64.48" width="10.49" height="10.49" transform="translate(50.57 261.54) rotate(-45)"></rect><rect class="cls-1" x="320.92" y="79.38" width="10.49" height="10.49" transform="translate(35.67 255.38) rotate(-44.99)"></rect><rect class="cls-1" x="335.75" y="79.32" width="10.49" height="10.49" transform="translate(40.08 265.89) rotate(-45)"></rect><rect class="cls-1" x="320.9" y="94.12" width="10.49" height="10.49" transform="translate(25.29 259.76) rotate(-45.01)"></rect><rect class="cls-1" x="335.75" y="94.16" width="10.49" height="10.49" transform="translate(29.58 270.23) rotate(-45)"></rect><path class="cls-1" d="m396.43,84.62l50.36-59.51h17.3l-50.36,59.51h-17.3Zm79.43-64.97h-24.45l8.91-10.53h15.45V3.67h-89.54v5.46h66.93l-8.91,10.53h-58.02v5.46h53.4l-54.98,64.97h24.45l-8.91,10.53h-15.29v5.46h93.1v-5.46h-70.65l8.91-10.53h61.75v-5.46h-57.13l54.98-64.96Z"></path><path class="cls-1" d="m532.84,20.72c1.36-1.9,2.17-4.22,2.17-6.74,0-2.73-.95-5.24-2.54-7.23,1.28-.78,2.77-1.23,4.37-1.23s3.09.46,4.37,1.23c-1.58,1.99-2.54,4.5-2.54,7.23s.95,5.24,2.54,7.23c-1.28.78-2.77,1.23-4.37,1.23-1.19,0-2.31-.25-3.34-.69-.2-.36-.43-.7-.67-1.04m-1.01,6.74c0,1.6-.45,3.09-1.23,4.37-1.99-1.58-4.5-2.54-7.23-2.54s-5.24.95-7.23,2.54c-.78-1.28-1.23-2.77-1.23-4.37s.45-3.09,1.23-4.37c1.99,1.58,4.5,2.54,7.23,2.54,2.51,0,4.83-.81,6.74-2.17.33.24.68.46,1.04.66.44,1.03.69,2.15.69,3.34m-13.56,6.74c1.42-1.08,3.18-1.73,5.1-1.73s3.68.65,5.1,1.73c-1.42,1.08-3.18,1.73-5.1,1.73s-3.68-.65-5.1-1.73m11.84,10.74c-1.9-1.36-4.22-2.17-6.74-2.17-2.73,0-5.24.95-7.23,2.54-.78-1.28-1.23-2.77-1.23-4.37s.45-3.09,1.23-4.37c1.99,1.58,4.5,2.54,7.23,2.54s5.24-.95,7.23-2.54c.78,1.28,1.23,2.77,1.23,4.37,0,1.18-.25,2.31-.69,3.34-.36.2-.7.42-1.04.66m6.74,1.01c1.6,0,3.09.46,4.37,1.23-1.58,1.99-2.54,4.5-2.54,7.23s.95,5.24,2.54,7.23c-1.28.78-2.77,1.23-4.37,1.23-1.19,0-2.31-.25-3.34-.69-.2-.36-.43-.7-.67-1.04,1.36-1.9,2.17-4.23,2.17-6.74s-.81-4.83-2.17-6.74c.24-.33.46-.68.67-1.04,1.02-.44,2.15-.69,3.34-.69m17.84,1.23c-1.58,1.99-2.54,4.5-2.54,7.23s.95,5.24,2.54,7.23c-1.28.78-2.77,1.23-4.37,1.23s-3.1-.46-4.37-1.23c1.58-1.99,2.54-4.5,2.54-7.23s-.95-5.24-2.54-7.23c1.28-.78,2.77-1.23,4.37-1.23,1.6,0,3.09.45,4.37,1.23m13.47,0c-1.58,1.99-2.54,4.5-2.54,7.23s.95,5.24,2.54,7.23c-1.28.78-2.77,1.23-4.37,1.23s-3.09-.46-4.37-1.23c1.58-1.99,2.54-4.5,2.54-7.23s-.95-5.25-2.54-7.23c1.28-.78,2.77-1.23,4.37-1.23,1.6,0,3.09.46,4.37,1.23m17.56,7.23c0,4.67-3.8,8.46-8.46,8.46-1.6,0-3.09-.46-4.37-1.23,1.58-1.99,2.54-4.5,2.54-7.23s-.95-5.24-2.54-7.23c1.28-.78,2.77-1.23,4.37-1.23,4.67,0,8.46,3.8,8.46,8.46m-15.2-5.1c1.08,1.42,1.73,3.18,1.73,5.1s-.65,3.68-1.73,5.1c-1.08-1.42-1.73-3.18-1.73-5.1s.65-3.68,1.73-5.1m-13.47,0c1.08,1.42,1.73,3.18,1.73,5.1s-.65,3.68-1.73,5.1c-1.08-1.42-1.73-3.19-1.73-5.1s.65-3.68,1.73-5.1m-13.47,0c1.08,1.42,1.73,3.18,1.73,5.1s-.65,3.68-1.73,5.1c-1.08-1.42-1.73-3.18-1.73-5.1s.65-3.68,1.73-5.1m-11.75,18.57c0,1.6-.45,3.09-1.23,4.37-1.99-1.58-4.5-2.54-7.23-2.54s-5.24.95-7.23,2.54c-.78-1.28-1.23-2.77-1.23-4.37s.45-3.09,1.23-4.37c1.99,1.58,4.5,2.54,7.23,2.54,2.51,0,4.83-.81,6.74-2.17.33.24.68.46,1.04.66.44,1.03.69,2.15.69,3.34m-13.57,6.74c1.42-1.08,3.18-1.73,5.1-1.73s3.68.65,5.1,1.73c-1.42,1.08-3.18,1.73-5.1,1.73s-3.68-.65-5.1-1.73m11.84,10.74c-1.9-1.36-4.22-2.17-6.74-2.17-2.73,0-5.24.95-7.23,2.54-.78-1.28-1.23-2.77-1.23-4.37s.45-3.09,1.23-4.37c1.99,1.58,4.5,2.54,7.23,2.54s5.24-.95,7.23-2.54c.78,1.28,1.23,2.77,1.23,4.37,0,1.18-.25,2.31-.69,3.34-.36.21-.7.43-1.04.67m6.74,1.01c1.6,0,3.09.45,4.37,1.23-1.58,1.99-2.54,4.5-2.54,7.23s.95,5.24,2.54,7.23c-1.28.78-2.77,1.23-4.37,1.23s-3.09-.46-4.37-1.23c1.58-1.99,2.54-4.5,2.54-7.23,0-2.51-.81-4.83-2.17-6.74.24-.33.46-.68.67-1.04,1.02-.44,2.15-.69,3.34-.69m17.84,1.23c-1.58,1.99-2.54,4.5-2.54,7.23s.95,5.25,2.54,7.23c-1.28.77-2.77,1.23-4.37,1.23s-3.1-.46-4.37-1.23c1.58-1.99,2.54-4.5,2.54-7.23s-.95-5.24-2.54-7.23c1.28-.78,2.77-1.23,4.37-1.23,1.6,0,3.09.45,4.37,1.23m13.47,0c-1.58,1.99-2.54,4.5-2.54,7.23s.95,5.24,2.54,7.23c-1.28.77-2.77,1.23-4.37,1.23s-3.09-.46-4.37-1.23c1.58-1.99,2.54-4.5,2.54-7.23s-.95-5.24-2.54-7.23c1.28-.78,2.77-1.23,4.37-1.23,1.6,0,3.09.45,4.37,1.23m17.56,7.23c0,4.67-3.8,8.46-8.46,8.46-1.6,0-3.09-.46-4.37-1.23,1.58-1.99,2.54-4.5,2.54-7.23s-.95-5.24-2.54-7.23c1.28-.78,2.77-1.23,4.37-1.23,4.67,0,8.46,3.8,8.46,8.46m-15.2-5.1c1.08,1.42,1.73,3.18,1.73,5.1s-.65,3.68-1.73,5.1c-1.08-1.42-1.73-3.18-1.73-5.1s.65-3.68,1.73-5.1m-13.47,0c1.08,1.42,1.73,3.19,1.73,5.1s-.65,3.68-1.73,5.1c-1.08-1.42-1.73-3.18-1.73-5.1s.65-3.68,1.73-5.1m-13.47,0c1.08,1.42,1.73,3.18,1.73,5.1s-.65,3.68-1.73,5.1c-1.08-1.42-1.73-3.18-1.73-5.1s.65-3.68,1.73-5.1m-16.87-.6c-1.03.44-2.15.69-3.34.69-1.92,0-3.68-.65-5.1-1.73,1.42-1.08,3.18-1.73,5.1-1.73,1.6,0,3.09.45,4.37,1.23-.38.48-.73.99-1.03,1.53m3.4,10.8c-1.08-1.42-1.73-3.18-1.73-5.1,0-1.18.25-2.31.69-3.34.54-.3,1.05-.65,1.53-1.03.78,1.28,1.23,2.77,1.23,4.37,0,1.92-.65,3.68-1.73,5.1m-15.2-5.1c0-1.6.45-3.09,1.23-4.37,1.99,1.58,4.5,2.54,7.23,2.54.69,0,1.36-.07,2.02-.19-.12.66-.19,1.33-.19,2.02,0,2.73.95,5.24,2.54,7.23-1.28.77-2.77,1.23-4.37,1.23-4.67,0-8.46-3.8-8.46-8.46m8.46-42.25c.69,0,1.36-.07,2.02-.19-.12.66-.19,1.33-.19,2.02s.07,1.37.19,2.02c-.66-.11-1.33-.19-2.02-.19-2.73,0-5.24.95-7.23,2.54-.78-1.28-1.23-2.77-1.23-4.37s.45-3.09,1.23-4.37c1.99,1.58,4.5,2.54,7.23,2.54m3.34-3.86c-1.03.44-2.15.69-3.34.69-1.92,0-3.68-.65-5.1-1.73,1.42-1.08,3.18-1.73,5.1-1.73,1.6,0,3.09.46,4.37,1.23-.38.48-.73.99-1.03,1.53m3.89,10.07c-.48-.38-.99-.73-1.53-1.04-.44-1.02-.69-2.15-.69-3.34s.25-2.31.69-3.34c.54-.3,1.05-.65,1.53-1.03.78,1.28,1.23,2.77,1.23,4.37s-.45,3.09-1.23,4.37m-2.86,2.86c-1.28.78-2.77,1.23-4.37,1.23-1.92,0-3.68-.65-5.1-1.73,1.42-1.08,3.18-1.73,5.1-1.73,1.19,0,2.31.25,3.34.69.3.54.65,1.05,1.03,1.53m-4.37-56.12c1.6,0,3.09.46,4.37,1.23-1.58,1.99-2.54,4.5-2.54,7.23,0,.69.07,1.37.19,2.02-.66-.12-1.33-.19-2.02-.19-2.73,0-5.24.95-7.23,2.54-.78-1.28-1.23-2.77-1.23-4.37,0-4.67,3.8-8.46,8.46-8.46m7.23,12.84c-.48-.38-.99-.73-1.53-1.03-.44-1.02-.69-2.15-.69-3.34,0-1.92.65-3.68,1.73-5.1,1.08,1.42,1.73,3.18,1.73,5.1,0,1.6-.45,3.09-1.23,4.37m-2.86,2.86c-1.28.78-2.77,1.23-4.37,1.23-1.92,0-3.68-.65-5.1-1.73,1.42-1.08,3.18-1.73,5.1-1.73,1.19,0,2.31.25,3.34.69.3.54.65,1.05,1.03,1.53m26.94-14.46c-1.58,1.99-2.54,4.5-2.54,7.23s.95,5.25,2.54,7.23c-1.28.78-2.77,1.23-4.37,1.23s-3.1-.46-4.37-1.23c1.58-1.99,2.54-4.5,2.54-7.23s-.95-5.24-2.54-7.23c1.28-.78,2.77-1.23,4.37-1.23,1.6,0,3.09.45,4.37,1.23m13.47,0c-1.58,1.99-2.54,4.5-2.54,7.23s.95,5.24,2.54,7.23c-1.28.78-2.77,1.23-4.37,1.23s-3.09-.46-4.37-1.23c1.58-1.99,2.54-4.5,2.54-7.23s-.95-5.24-2.54-7.23c1.28-.78,2.77-1.23,4.37-1.23s3.09.46,4.37,1.23m17.56,7.23c0,4.67-3.8,8.46-8.46,8.46-1.6,0-3.09-.46-4.37-1.23,1.58-1.99,2.54-4.5,2.54-7.23s-.95-5.24-2.54-7.23c1.28-.78,2.77-1.23,4.37-1.23,4.67,0,8.46,3.8,8.46,8.46m-15.2-5.1c1.08,1.42,1.73,3.18,1.73,5.1s-.65,3.68-1.73,5.1c-1.08-1.42-1.73-3.18-1.73-5.1s.65-3.68,1.73-5.1m-13.47,0c1.08,1.42,1.73,3.19,1.73,5.1s-.65,3.68-1.73,5.1c-1.08-1.42-1.73-3.18-1.73-5.1s.65-3.68,1.73-5.1m-13.47,0c1.08,1.42,1.73,3.18,1.73,5.1s-.65,3.68-1.73,5.1c-1.08-1.42-1.73-3.18-1.73-5.1s.65-3.68,1.73-5.1m0,14.57c1.9,1.36,4.23,2.17,6.74,2.17s4.83-.81,6.74-2.17c1.9,1.36,4.22,2.17,6.74,2.17s4.83-.81,6.74-2.17c1.9,1.36,4.23,2.17,6.74,2.17,6.42,0,11.64-5.22,11.64-11.64s-5.22-11.64-11.64-11.64c-2.51,0-4.83.81-6.74,2.17-1.9-1.36-4.22-2.17-6.74-2.17s-4.83.81-6.74,2.17c-1.9-1.36-4.23-2.17-6.74-2.17s-4.83.81-6.74,2.17c-1.9-1.36-4.22-2.17-6.74-2.17s-4.83.81-6.74,2.17c-1.9-1.36-4.22-2.17-6.74-2.17-6.42,0-11.64,5.22-11.64,11.64,0,2.51.81,4.83,2.17,6.74-1.36,1.9-2.17,4.22-2.17,6.74s.81,4.83,2.17,6.74c-1.36,1.9-2.17,4.22-2.17,6.74s.81,4.83,2.17,6.74c-1.36,1.9-2.17,4.22-2.17,6.74s.81,4.83,2.17,6.74c-1.36,1.9-2.17,4.23-2.17,6.74s.81,4.83,2.17,6.74c-1.36,1.9-2.17,4.22-2.17,6.74s.81,4.83,2.17,6.74c-1.36,1.9-2.17,4.23-2.17,6.74,0,6.42,5.22,11.64,11.64,11.64,2.51,0,4.83-.81,6.74-2.17,1.9,1.36,4.23,2.17,6.74,2.17s4.83-.81,6.74-2.17c1.9,1.36,4.23,2.17,6.74,2.17s4.83-.81,6.74-2.17c1.9,1.36,4.22,2.17,6.74,2.17s4.83-.81,6.74-2.17c1.9,1.36,4.23,2.17,6.74,2.17,6.42,0,11.64-5.22,11.64-11.64s-5.22-11.64-11.64-11.64c-2.51,0-4.83.81-6.74,2.17-1.9-1.36-4.22-2.17-6.74-2.17s-4.83.81-6.74,2.17c-1.9-1.36-4.23-2.17-6.74-2.17s-4.83.81-6.74,2.17c-1.9-1.36-4.22-2.17-6.74-2.17-.69,0-1.37.07-2.02.19.12-.66.19-1.33.19-2.02,0-2.51-.81-4.83-2.17-6.74,1.36-1.9,2.17-4.23,2.17-6.74,0-.69-.07-1.36-.19-2.02.66.11,1.33.19,2.02.19,2.51,0,4.83-.81,6.74-2.17,1.9,1.36,4.23,2.17,6.74,2.17s4.83-.81,6.74-2.17c1.9,1.36,4.22,2.17,6.74,2.17s4.83-.81,6.74-2.17c1.9,1.36,4.23,2.17,6.74,2.17,6.42,0,11.64-5.22,11.64-11.64s-5.22-11.64-11.64-11.64c-2.51,0-4.83.81-6.74,2.17-1.9-1.36-4.22-2.17-6.74-2.17s-4.83.81-6.74,2.17c-1.9-1.36-4.23-2.17-6.74-2.17s-4.83.81-6.74,2.17c-1.9-1.36-4.22-2.17-6.74-2.17-.69,0-1.37.07-2.02.19.12-.66.19-1.33.19-2.02,0-2.51-.81-4.83-2.17-6.74,1.36-1.9,2.17-4.23,2.17-6.74,0-.69-.07-1.37-.19-2.03.66.12,1.33.19,2.02.19,2.51,0,4.83-.81,6.74-2.17"></path><path class="cls-1" d="m662.68,22.66c.89-.27,1.82.01,2.4.74.89,1.11.69,2.87-.42,3.84l-2.74,2.4c-1.17,1.03-1.28,2.81-.26,3.97.55.63,1.33.96,2.12.96.66,0,1.32-.23,1.86-.7l2.74-2.4c3.36-2.95,3.85-8.16,1.1-11.6-2.02-2.52-5.32-3.54-8.42-2.61-1.49.45-2.33,2.02-1.88,3.51.45,1.49,2.02,2.33,3.51,1.88"></path><path class="cls-1" d="m695.82,74.21c-1.02-1.17-2.8-1.28-3.97-.26l-3.61,3.16c-.52.46-1.16.69-1.81.62-.6-.05-1.15-.35-1.53-.83-.89-1.11-.7-2.87.42-3.84l9.63-8.45c3.36-2.95,3.85-8.16,1.1-11.6-1.36-1.69-3.29-2.73-5.44-2.92-2.17-.19-4.32.52-6.01,2l-9.63,8.45c-.53.46-1.18.69-1.81.63-.6-.05-1.15-.35-1.53-.83-.89-1.11-.7-2.87.42-3.84l9.63-8.45c3.37-2.95,3.86-8.16,1.1-11.6-1.36-1.69-3.29-2.73-5.43-2.92-2.19-.2-4.33.52-6.02,2l-9.6,8.43-1.1.94c-1.18,1.01-1.32,2.79-.31,3.97,1.02,1.18,2.79,1.32,3.97.31l10.76-9.41c.52-.46,1.16-.69,1.81-.63.6.05,1.15.35,1.53.83.89,1.1.7,2.86-.42,3.84l-9.62,8.45c-3.37,2.95-3.86,8.16-1.1,11.6,1.35,1.7,3.28,2.73,5.43,2.92,2.19.2,4.33-.52,6.02-2l9.63-8.45c.52-.46,1.16-.68,1.81-.62.6.05,1.15.35,1.54.83.89,1.1.7,2.87-.42,3.84l-9.63,8.45c-3.36,2.96-3.86,8.16-1.1,11.6,1.36,1.69,3.29,2.73,5.44,2.92.23.02.46.03.7.03,1.94,0,3.81-.71,5.32-2.03l3.61-3.17c1.17-1.02,1.28-2.8.26-3.97"></path><path class="cls-1" d="m699.67,84.95c-1.02-1.17-2.81-1.28-3.97-.26l-.81.71c-2.68,2.35-3.62,6.14-2.34,9.44.43,1.12,1.49,1.8,2.62,1.8.34,0,.68-.06,1.02-.19,1.45-.56,2.17-2.19,1.61-3.64-.42-1.09-.09-2.39.8-3.18l.81-.71c1.17-1.03,1.28-2.8.26-3.97"></path><path class="cls-1" d="m637.6,20.02h12.57c4.49,0,8.14-3.69,8.14-8.22s-3.65-8.22-8.14-8.22h-17.58c-1.79,0-3.19,1.67-2.73,3.54.32,1.26,1.54,2.09,2.84,2.09h17.47c1.38,0,2.51,1.16,2.51,2.59s-1.13,2.59-2.51,2.59h-12.57c-4.49,0-8.14,3.69-8.14,8.22s3.65,8.22,8.14,8.22h12.57c1.38,0,2.51,1.16,2.51,2.59s-1.13,2.59-2.51,2.59h-12.57c-4.49,0-8.14,3.69-8.14,8.22s3.65,8.22,8.14,8.22h12.57c1.38,0,2.51,1.16,2.51,2.59s-1.13,2.59-2.51,2.59h-12.57c-4.49,0-8.14,3.69-8.14,8.22s3.65,8.22,8.14,8.22h12.57c1.38,0,2.51,1.16,2.51,2.59s-1.13,2.59-2.51,2.59h-12.57c-4.49,0-8.14,3.69-8.14,8.22s3.65,8.22,8.14,8.22h12.57c1.38,0,2.51,1.16,2.51,2.59s-1.13,2.59-2.51,2.59h-17.89c-1.56,0-2.82,1.26-2.82,2.82s1.26,2.81,2.82,2.81h17.89c4.49,0,8.14-3.69,8.14-8.22s-3.65-8.22-8.14-8.22h-12.57c-1.38,0-2.51-1.16-2.51-2.59s1.12-2.59,2.51-2.59h12.57c4.49,0,8.14-3.69,8.14-8.22s-3.65-8.22-8.14-8.22h-12.57c-1.38,0-2.51-1.16-2.51-2.59s1.12-2.59,2.51-2.59h12.57c4.49,0,8.14-3.69,8.14-8.22s-3.65-8.22-8.14-8.22h-12.57c-1.38,0-2.51-1.16-2.51-2.59s1.12-2.59,2.51-2.59h12.57c4.49,0,8.14-3.69,8.14-8.22s-3.65-8.22-8.14-8.22h-12.57c-1.38,0-2.51-1.16-2.51-2.59s1.12-2.59,2.51-2.59"></path><path class="cls-1" d="m707.57,30.84h12.57c4.49,0,8.14-3.69,8.14-8.22s-3.65-8.22-8.14-8.22h-12.57c-1.38,0-2.51-1.16-2.51-2.59s1.12-2.59,2.51-2.59h17.58c1.55,0,2.81-1.26,2.81-2.82s-1.26-2.81-2.81-2.81h-17.58c-4.49,0-8.14,3.69-8.14,8.22s3.65,8.22,8.14,8.22h12.57c1.38,0,2.51,1.16,2.51,2.59s-1.13,2.59-2.51,2.59h-12.57c-4.49,0-8.14,3.69-8.14,8.22s3.65,8.22,8.14,8.22h12.57c1.38,0,2.51,1.16,2.51,2.59s-1.13,2.59-2.51,2.59h-12.57c-4.49,0-8.14,3.69-8.14,8.22s3.65,8.22,8.14,8.22h12.57c1.38,0,2.51,1.16,2.51,2.59s-1.13,2.59-2.51,2.59h-12.57c-4.49,0-8.14,3.69-8.14,8.22s3.65,8.22,8.14,8.22h12.57c1.38,0,2.51,1.16,2.51,2.59s-1.13,2.59-2.51,2.59h-12.57c-4.49,0-8.14,3.69-8.14,8.22s3.65,8.22,8.14,8.22h17.58c1.55,0,2.81-1.26,2.81-2.82s-1.26-2.82-2.81-2.82h-17.58c-1.38,0-2.51-1.16-2.51-2.59s1.12-2.59,2.51-2.59h12.57c4.49,0,8.14-3.69,8.14-8.22s-3.65-8.22-8.14-8.22h-12.57c-1.38,0-2.51-1.16-2.51-2.59s1.12-2.59,2.51-2.59h12.57c4.49,0,8.14-3.69,8.14-8.22s-3.65-8.22-8.14-8.22h-12.57c-1.38,0-2.51-1.16-2.51-2.59s1.12-2.59,2.51-2.59h12.57c4.49,0,8.14-3.69,8.14-8.22s-3.65-8.22-8.14-8.22h-12.57c-1.38,0-2.51-1.16-2.51-2.59s1.12-2.59,2.51-2.59"></path><path class="cls-1" d="m846.17,61.57c-1.51-2.62-3.46-5.02-5.81-7.11l-15.77,17.64c.46.41.81.82,1.05,1.25l20.52-11.78Z"></path><path class="cls-1" d="m777.23,78.45l-9.86,21.51c1.92.88,3.75,1.66,5.6,2.39l8.7-22c-1.45-.57-2.9-1.19-4.44-1.9"></path><path class="cls-1" d="m830.16,27.54l7.88-22.31c-1.95-.69-3.93-1.32-5.88-1.88l-6.53,22.74c1.49.43,3.02.92,4.53,1.45"></path><path class="cls-1" d="m818.87,69c1.33.5,2.49,1.02,3.45,1.55l11.39-20.74c-1.97-1.08-4.09-2.04-6.49-2.95l-8.34,22.14Z"></path><path class="cls-1" d="m790.85,107.55c2.05.38,4.13.7,6.18.95l2.8-23.49c-1.53-.18-3.08-.42-4.61-.71l-4.37,23.26Z"></path><path class="cls-1" d="m839.13,31.25l10.13-21.38c-1.88-.89-3.69-1.69-5.53-2.46l-9.07,21.86c1.48.61,2.94,1.26,4.46,1.98"></path><path class="cls-1" d="m778.79,104.45c1.96.64,3.96,1.22,5.97,1.74l5.9-22.92c-1.52-.39-3.03-.83-4.51-1.32l-7.35,22.49Z"></path><path class="cls-1" d="m813.29,85.19l2.97,23.47c2.36-.3,4.65-.73,6.82-1.29l-5.88-22.92c-1.22.31-2.53.56-3.91.73"></path><path class="cls-1" d="m820.61,83.3l9.38,21.72c2.47-1.07,4.78-2.34,6.86-3.8l-13.55-19.4c-.78.54-1.68,1.04-2.69,1.47"></path><path class="cls-1" d="m825.05,80.27l18.11,15.23c2-2.38,3.59-5.01,4.73-7.82l-21.93-8.88c-.21.51-.5.99-.91,1.47"></path><path class="cls-1" d="m821.11,44.85c-1.7-.49-3.54-.97-5.77-1.51l-5.57,23c1.63.4,3.24.81,4.81,1.26l6.53-22.74Z"></path><path class="cls-1" d="m804.49,85.4l-1.24,23.63c1.62.08,3.26.13,4.87.13.49,0,.98,0,1.47-.02l-.53-23.65c-1.53.03-3.08,0-4.57-.09"></path><path class="cls-1" d="m812.2,23.72l1.18-23.63c-2.2-.11-4.45-.11-6.6-.01l1.1,23.64c1.41-.06,2.88-.06,4.32,0"></path><path class="cls-1" d="m796.69,26.18l-10.41-21.25c-2.48,1.22-4.77,2.66-6.81,4.29l14.79,18.47c.68-.54,1.5-1.05,2.42-1.5"></path><path class="cls-1" d="m792.72,29.28l-19.22-13.8c-1.77,2.47-3.15,5.18-4.09,8.05l22.48,7.38c.19-.59.47-1.12.83-1.63"></path><path class="cls-1" d="m803.71,24.12l-3.61-23.39c-2.38.37-4.69.88-6.86,1.52l6.68,22.7c1.17-.34,2.44-.62,3.79-.83"></path><path class="cls-1" d="m826.11,1.81c-2.09-.46-4.2-.83-6.26-1.12l-3.25,23.44c1.47.2,2.98.47,4.49.8l5.02-23.12Z"></path><path class="cls-1" d="m849.38,70.21l-23.21,4.62c.11.55.16,1.17.16,1.86,0,.15,0,.3-.02.44l23.61,1.62c.05-.68.07-1.37.07-2.06,0-2.23-.21-4.41-.62-6.47"></path><path class="cls-1" d="m791.7,34.78c-.11-.39-.16-.88-.16-1.55v-.21s-23.64-.87-23.64-.87c-.01.42-.02.83-.02,1.16,0,2.72.35,5.35,1.03,7.81l22.79-6.34Z"></path><path class="cls-1" d="m804.56,65.12l5.33-23.06c-1.72-.39-3.43-.79-5.1-1.22l-5.77,22.95c1.82.46,3.67.89,5.54,1.32"></path><path class="cls-1" d="m800.15,39.57c-1.55-.48-2.85-.95-3.98-1.44l-9.35,21.74c1.89.81,3.95,1.56,6.29,2.29l7.03-22.59Z"></path><path class="cls-1" d="m792.07,35.52l-18.72,14.48c1.79,2.32,4.04,4.41,6.67,6.2l13.33-19.55c-.57-.39-1.02-.78-1.29-1.13"></path><path class="cls-1" d="m51.91,14.26c0,5.93-4.8,10.73-10.73,10.73s-10.73-4.8-10.73-10.73,4.8-10.73,10.73-10.73,10.73,4.8,10.73,10.73"></path><path class="cls-1" d="m78.67,13.91c0,5.93-4.8,10.73-10.73,10.73s-10.73-4.8-10.73-10.73,4.8-10.73,10.73-10.73,10.73,4.8,10.73,10.73"></path><path class="cls-1" d="m100.97,28.71c0,5.93-4.8,10.73-10.73,10.73s-10.73-4.8-10.73-10.73,4.8-10.73,10.73-10.73,10.73,4.8,10.73,10.73"></path><path class="cls-1" d="m30.03,29.63c0,5.93-4.8,10.73-10.73,10.73s-10.73-4.8-10.73-10.73,4.8-10.73,10.73-10.73c5.93,0,10.73,4.8,10.73,10.73"></path><path class="cls-1" d="m21.46,54.9c0,5.93-4.8,10.73-10.73,10.73S0,60.83,0,54.9s4.8-10.73,10.73-10.73,10.73,4.8,10.73,10.73"></path><path class="cls-1" d="m29.97,80.18c0,5.93-4.8,10.73-10.73,10.73s-10.73-4.8-10.73-10.73,4.8-10.73,10.73-10.73,10.73,4.8,10.73,10.73"></path><path class="cls-1" d="m51.8,95.61c0,5.93-4.8,10.73-10.73,10.73s-10.73-4.8-10.73-10.73,4.8-10.73,10.73-10.73,10.73,4.8,10.73,10.73"></path><path class="cls-1" d="m78.57,96.02c0,5.93-4.8,10.73-10.73,10.73s-10.73-4.8-10.73-10.73,4.8-10.73,10.73-10.73c5.93,0,10.73,4.8,10.73,10.73"></path><path class="cls-1" d="m100.97,81.2c0,5.93-4.8,10.73-10.73,10.73s-10.73-4.8-10.73-10.73,4.8-10.73,10.73-10.73,10.73,4.8,10.73,10.73"></path></g></g></svg> 